<?xml version="1.0" encoding="utf-8"?>
<!-- Generator: Adobe Illustrator 16.0.0, SVG Export Plug-In . SVG Version: 6.00 Build 0)  -->
<!DOCTYPE svg PUBLIC "-//W3C//DTD SVG 1.1//EN" "http://www.w3.org/Graphics/SVG/1.1/DTD/svg11.dtd">
<svg version="1.1" id="Layer_1" xmlns="http://www.w3.org/2000/svg" xmlns:xlink="http://www.w3.org/1999/xlink" x="0px" y="0px"
	 width="600px" height="800px" viewBox="0 0 600 800" enable-background="new 0 0 600 800" xml:space="preserve">
<path fill="#FF7069" d="M377.276,400l111.961-111.961c21.34-21.339,21.34-55.938,0-77.277c-21.34-21.338-55.938-21.339-77.276,0.001
	L300,322.723l-111.96-111.96c-21.338-21.339-55.937-21.339-77.277,0c-21.339,21.339-21.339,55.937,0,77.276L222.724,400
	l-111.96,111.961c-21.339,21.34-21.339,55.937,0,77.276c10.67,10.67,24.654,16.005,38.639,16.005s27.969-5.335,38.638-16.005
	L300,477.276l111.96,111.961c10.671,10.671,24.651,16.005,38.638,16.005c13.982,0,27.97-5.336,38.639-16.005
	c21.34-21.34,21.34-55.937,0-77.276L377.276,400z"/>
</svg>
